<svg xmlns="http://www.w3.org/2000/svg" width="194" height="41.094" viewBox="0 0 194 41.094">
  <g id="logo" transform="translate(0 0)">
    <g id="Group_3" data-name="Group 3" transform="translate(0 0)">
      <g id="Group_205" data-name="Group 205">
        <rect id="Rectangle_1" data-name="Rectangle 1" width="9.601" height="23.876" transform="translate(11.994 16.697)" fill="#1b00e2"/>
        <g id="Group_2" data-name="Group 2" transform="translate(12.752 16.697)">
          <path id="Path_1" data-name="Path 1" d="M823.7,622.176H813L799,598.3h10.586Z" transform="translate(-799 -598.3)" fill="#1b00e2"/>
        </g>
        <path id="Path_2" data-name="Path 2" d="M443.573,137.1a8.317,8.317,0,0,1,16.47,0h10.167a18.164,18.164,0,0,0-36.209,0Z" transform="translate(-434 -120.4)" fill="#1b00e2"/>
      </g>
    </g>
    <path id="Path_4019" data-name="Path 4019" d="M24.279-101.671h8.568l-5-7.344a7.971,7.971,0,0,0,4.488-7.48c0-5.508-4.216-8.976-10.847-8.976H10.032v23.8h8.024v-5.984h2.176ZM24.245-116.5c0,1.734-1.054,2.788-3.264,2.788H18.056v-5.576h2.924C23.191-119.284,24.245-118.23,24.245-116.5Zm23.6,15.369c7.752,0,13.431-5.236,13.431-12.445s-5.678-12.445-13.431-12.445-13.431,5.236-13.431,12.445S40.089-101.127,47.842-101.127Zm0-6.494c-2.958,0-5.338-2.244-5.338-5.95s2.38-5.95,5.338-5.95,5.338,2.244,5.338,5.95S50.8-107.621,47.842-107.621Zm25.229,6.494c7.378,0,11.085-3.672,11.085-8.024,0-8.772-13.159-6.392-13.159-9.248,0-.816.748-1.5,3.094-1.5a14.684,14.684,0,0,1,6.63,1.768l2.414-5.814a18.893,18.893,0,0,0-8.976-2.074c-7.378,0-11.085,3.6-11.085,8.024,0,8.874,13.159,6.46,13.159,9.452,0,.816-.816,1.292-3.094,1.292a16.329,16.329,0,0,1-7.854-2.176L62.7-103.575A21.327,21.327,0,0,0,73.071-101.127Zm18.293-.544h8.024V-119.25h6.97v-6.222H84.394v6.222h6.97Zm31.316,0h8.568l-5-7.344a7.971,7.971,0,0,0,4.488-7.48c0-5.508-4.216-8.976-10.847-8.976H108.433v23.8h8.024v-5.984h2.176Zm-.034-14.825c0,1.734-1.054,2.788-3.264,2.788h-2.924v-5.576h2.924C121.591-119.284,122.645-118.23,122.645-116.5Zm23.6,15.369c7.752,0,13.431-5.236,13.431-12.445s-5.678-12.445-13.431-12.445-13.431,5.236-13.431,12.445S138.49-101.127,146.243-101.127Zm0-6.494c-2.958,0-5.338-2.244-5.338-5.95s2.38-5.95,5.338-5.95,5.338,2.244,5.338,5.95S149.2-107.621,146.243-107.621Z" transform="translate(34.327 142.221)" fill="#1b00e2"/>
  </g>
</svg>
