<svg width="32" height="32" viewBox="0 0 32 32" fill="none" xmlns="http://www.w3.org/2000/svg">
<path d="M16.1519 3.0769H16.2369C16.5365 3.08132 16.8314 3.15214 17.1003 3.28425C17.3693 3.41637 17.6055 3.60649 17.7921 3.84092C17.9787 4.07535 18.111 4.34825 18.1795 4.63997C18.2479 4.93168 18.2508 5.23495 18.1879 5.5279V5.5369C18.0887 5.98056 18.0895 6.44074 18.1902 6.88406C18.2909 7.32738 18.4891 7.74271 18.7703 8.09993C19.0515 8.45715 19.4087 8.74729 19.8159 8.94931C20.2232 9.15133 20.6703 9.26016 21.1249 9.26791C21.6541 9.27183 22.1605 9.4838 22.5348 9.85803C22.909 10.2323 23.121 10.7387 23.1249 11.2679C23.1317 11.7232 23.2399 12.1712 23.4417 12.5794C23.6434 12.9876 23.9336 13.3456 24.2912 13.6275C24.6488 13.9094 25.0647 14.1081 25.5087 14.209C25.9527 14.3099 26.4136 14.3106 26.8579 14.2109H26.8669C27.1606 14.1468 27.4649 14.1488 27.7577 14.2169C28.0505 14.2849 28.3245 14.4173 28.5598 14.6043C28.7951 14.7914 28.9859 15.0285 29.1182 15.2984C29.2505 15.5683 29.3211 15.8643 29.3249 16.1649V16.1769C29.3397 18.7859 28.5796 21.3406 27.1409 23.5171C25.7022 25.6936 23.6497 27.3939 21.2435 28.4026C18.8373 29.4112 16.1858 29.6827 13.6251 29.1827C11.0644 28.6827 8.70988 27.4336 6.85989 25.5939C5.0099 23.7541 3.7478 21.4066 3.23355 18.8487C2.71931 16.2908 2.97609 13.6379 3.97134 11.2261C4.96659 8.81438 6.6555 6.75243 8.82397 5.30164C10.9924 3.85085 13.5429 3.07655 16.1519 3.0769ZM16.2089 5.0769H16.1519C13.936 5.07536 11.7695 5.73195 9.92723 6.9634C8.08497 8.19485 6.64994 9.94568 5.80412 11.9938C4.9583 14.042 4.7398 16.2952 5.17634 18.4677C5.61287 20.6402 6.68477 22.6342 8.2561 24.1966C9.82742 25.7591 11.8274 26.8197 14.0023 27.244C16.1773 27.6682 18.4292 27.437 20.4726 26.5796C22.5159 25.7222 24.2586 24.2773 25.4796 22.4281C26.7006 20.5789 27.345 18.4088 27.3309 16.1929C27.3307 16.1887 27.3296 16.1845 27.3277 16.1807C27.3259 16.1769 27.3232 16.1736 27.3199 16.1709C27.3167 16.1681 27.3128 16.166 27.3086 16.165C27.3044 16.1639 27.3001 16.1639 27.2959 16.1649C26.5619 16.3282 25.8006 16.3258 25.0677 16.1578C24.3347 15.9899 23.6483 15.6607 23.0586 15.1941C22.4689 14.7276 21.9906 14.1354 21.6585 13.4607C21.3264 12.786 21.1489 12.0458 21.1389 11.2939V11.2769C21.1389 11.2724 21.1371 11.2681 21.1339 11.2649C21.1307 11.2617 21.1264 11.2599 21.1219 11.2599H21.1089C20.357 11.2499 19.6168 11.0724 18.9421 10.7403C18.2674 10.4082 17.6752 9.92992 17.2087 9.34018C16.7421 8.75045 16.4129 8.06412 16.245 7.33113C16.077 6.59815 16.0746 5.83694 16.2379 5.10291C16.237 5.09615 16.2339 5.08989 16.229 5.08517C16.224 5.08044 16.2177 5.07753 16.2109 5.0769H16.2089Z" fill="#0055FF" stroke="#0055FF"/>
<path d="M19 25C20.1046 25 21 24.1046 21 23C21 21.8954 20.1046 21 19 21C17.8954 21 17 21.8954 17 23C17 24.1046 17.8954 25 19 25Z" fill="#0055FF" stroke="#0055FF"/>
<path d="M11.5 22C12.3284 22 13 21.3284 13 20.5C13 19.6716 12.3284 19 11.5 19C10.6716 19 10 19.6716 10 20.5C10 21.3284 10.6716 22 11.5 22Z" fill="#0055FF" stroke="#0055FF"/>
<path d="M10 16C11.1046 16 12 15.1046 12 14C12 12.8954 11.1046 12 10 12C8.89543 12 8 12.8954 8 14C8 15.1046 8.89543 16 10 16Z" fill="#0055FF" stroke="#0055FF"/>
<path d="M17.5 17C18.3284 17 19 16.3284 19 15.5C19 14.6716 18.3284 14 17.5 14C16.6716 14 16 14.6716 16 15.5C16 16.3284 16.6716 17 17.5 17Z" fill="#0055FF" stroke="#0055FF"/>
</svg>
